<?xml version="1.0" standalone="no"?>
<!DOCTYPE svg PUBLIC "-//W3C//DTD SVG 20010904//EN"
 "http://www.w3.org/TR/2001/REC-SVG-20010904/DTD/svg10.dtd">
<svg version="1.0" xmlns="http://www.w3.org/2000/svg"
 width="400.000000pt" height="400.000000pt" viewBox="0 0 400.000000 400.000000"
 preserveAspectRatio="xMidYMid meet">
<metadata>
Created by potrace 1.11, written by Peter Selinger 2001-2013
</metadata>
<g transform="translate(0.000000,400.000000) scale(0.100000,-0.100000)"
fill="#000000" stroke="none">
<path d="M516 3554 c2 -13 9 -36 16 -51 6 -16 11 -31 10 -35 -1 -4 7 -31 17
-60 11 -29 34 -100 52 -158 17 -58 36 -110 40 -116 5 -6 7 -13 4 -16 -3 -3 2
-21 10 -41 8 -21 13 -37 11 -37 -3 0 2 -17 10 -37 9 -20 17 -44 19 -52 6 -34
39 -127 48 -138 5 -7 7 -13 3 -13 -3 0 0 -15 8 -34 8 -19 12 -37 8 -40 -3 -3
0 -6 7 -6 7 0 10 -4 7 -8 -3 -5 6 -41 19 -81 14 -40 25 -79 25 -87 0 -8 4 -14
9 -14 6 0 9 -8 9 -17 -1 -10 18 -76 40 -147 23 -71 42 -135 42 -142 0 -8 4
-14 8 -14 4 0 9 -12 10 -26 1 -14 5 -31 9 -37 4 -7 8 -16 9 -22 3 -16 85 -278
94 -300 4 -11 11 -29 13 -40 7 -28 66 -217 74 -235 3 -8 7 -21 9 -28 1 -8 6
-21 10 -30 3 -9 8 -28 10 -41 2 -13 7 -27 11 -30 4 -3 8 -10 8 -16 1 -11 32
-121 42 -145 3 -8 7 -17 8 -20 1 -3 12 -39 25 -80 13 -41 24 -77 25 -80 6 -29
50 -158 56 -166 5 -6 6 -13 3 -16 -3 -4 2 -20 11 -37 8 -17 13 -31 10 -31 -2
0 7 -31 20 -69 14 -38 25 -76 25 -85 0 -9 4 -16 9 -16 5 0 8 -6 8 -13 -2 -11
27 -115 40 -147 8 -19 8 -19 17 -51 l7 -26 475 0 c261 0 472 2 469 5 -3 3 0
11 6 19 6 7 8 13 4 13 -4 0 -3 6 3 12 9 13 25 71 22 84 -1 4 2 10 7 13 7 5 39
96 48 136 1 5 7 23 14 38 6 16 9 33 5 38 -3 5 -1 9 4 9 8 0 20 32 27 75 1 6 7
23 13 38 7 15 15 40 18 55 4 15 11 32 16 38 5 7 8 16 7 20 -1 5 3 22 10 38 6
16 13 36 14 45 1 9 6 22 10 29 5 6 5 17 2 22 -3 5 -2 10 3 10 5 0 13 15 17 33
4 17 9 34 9 37 87 272 119 369 126 385 21 49 62 182 63 203 1 12 4 22 8 22 3
0 10 15 14 33 10 42 9 40 39 124 13 40 22 73 19 73 -3 0 0 6 6 13 6 8 12 22
14 33 1 10 6 24 9 30 4 6 9 21 11 35 3 13 12 41 20 62 9 20 14 37 12 37 -2 0
3 17 12 38 9 20 17 46 19 57 2 11 29 94 59 185 31 91 58 173 60 183 2 10 13
43 24 73 12 30 18 54 16 54 -3 0 1 13 10 30 8 16 14 33 13 37 -1 4 6 25 15 47
9 21 17 46 17 55 0 9 5 22 12 29 7 7 8 12 4 12 -5 0 -3 7 4 15 7 8 10 15 7 15
-4 0 5 30 19 66 14 37 23 69 20 72 -3 2 0 14 6 26 7 11 13 23 13 26 0 3 5 19
11 35 26 68 67 201 67 215 0 8 4 18 9 21 6 3 -184 6 -420 6 l-429 0 -29 -111
c-15 -61 -29 -115 -30 -121 -2 -5 -14 -50 -28 -99 -14 -49 -23 -93 -20 -97 2
-4 1 -9 -3 -11 -7 -3 -62 -197 -68 -243 -2 -11 -4 -21 -5 -22 -2 -2 -3 -6 -4
-10 -2 -5 -8 -28 -15 -53 -7 -25 -14 -52 -16 -60 -2 -8 -8 -35 -15 -60 -7 -25
-13 -52 -15 -60 -2 -8 -8 -28 -14 -43 -6 -15 -10 -31 -9 -35 1 -4 -1 -14 -5
-22 -5 -15 -63 -236 -72 -275 -2 -11 -11 -45 -20 -75 -9 -30 -17 -67 -19 -82
-3 -14 -10 -36 -16 -48 -6 -12 -9 -24 -7 -27 3 -2 -1 -20 -9 -39 -8 -19 -14
-37 -15 -41 0 -15 -11 -58 -20 -83 -7 -22 -14 -52 -23 -100 -2 -8 -6 -22 -9
-30 -5 -13 -73 -267 -82 -310 -2 -8 -9 -30 -14 -49 -6 -19 -8 -38 -5 -42 3 -5
0 -9 -7 -9 -7 0 -10 -3 -6 -6 3 -3 -1 -23 -8 -44 -7 -21 -10 -42 -7 -46 4 -5
0 -3 -9 4 -9 7 -19 25 -22 40 -5 25 -15 65 -67 257 -12 44 -23 90 -26 102 -2
12 -8 33 -13 45 -5 13 -9 28 -10 33 -4 22 -15 67 -58 225 -24 90 -45 173 -48
185 -2 11 -4 20 -5 20 -1 0 -3 7 -5 15 -6 32 -47 186 -56 210 -4 14 -11 36
-13 50 -3 14 -10 43 -16 65 -6 22 -12 47 -14 55 -11 44 -56 210 -65 238 -5 18
-10 35 -10 37 -1 3 -1 6 -2 8 0 1 -2 9 -4 17 -5 26 -47 184 -52 200 -3 8 -7
22 -8 30 -2 17 -24 97 -33 120 -3 8 -6 22 -7 31 -1 9 -6 29 -10 45 -5 16 -8
32 -7 37 1 4 -3 7 -9 7 -5 0 -8 4 -5 9 3 4 1 23 -5 42 -6 19 -12 43 -14 54 -2
11 -10 41 -18 67 -8 26 -12 49 -9 52 3 4 0 6 -7 6 -7 0 -9 5 -6 10 4 6 2 17
-4 24 -9 10 -97 13 -430 13 l-419 0 4 -23z"/>
</g>
</svg>
